<svg xmlns="http://www.w3.org/2000/svg" xmlns:xlink="http://www.w3.org/1999/xlink" width="3646.5" height="3618.5" viewBox="0 0 3646.5 3618.5">
  <defs>
    <clipPath id="clip">
      <rect width="3646.5" height="3618.5" fill="#0ff000" fill-opacity="1"/>
    </clipPath>
  </defs>
  <path fill="#ff0000" fill-opacity="1" d="M 3264.480469 368.121094 L 3264.488281 368.121094 C 3264.488281 368.121094 3282.960938 340.398438 3264.480469 340.398438 C 1649.820312 340.398438 340.878906 1649.339844 340.875 3264 L 340.875 3264.007812 C 340.875 3264.292969 340.886719 3264.578125 340.90625 3264.859375 C 341.113281 3269.335938 343.023438 3272.277344 345.359375 3274.207031 C 347.664062 3276.328125 350.6875 3277.679688 354.023438 3277.851562 L 354.738281 3277.867188 L 355.332031 3277.808594 C 357.984375 3277.476562 368.597656 3275.433594 368.597656 3264 C 368.597656 1664.648438 1665.128906 368.121094 3264.480469 368.121094 " clip-path="url(#clip)"/>
  <path fill="#ff0000" fill-opacity="1" d="M 3264.488281 340.398438 L 340.875 340.398438 L 340.875 3264.007812 C 340.875 3271.65625 347.085938 3277.867188 354.738281 3277.867188 C 362.386719 3277.867188 368.597656 3271.65625 368.597656 3264.007812 L 368.597656 368.121094 C 585.074219 368.121094 3264.488281 368.121094 3264.488281 368.121094 C 3272.140625 368.121094 3278.351562 361.910156 3278.351562 354.261719 C 3278.351562 346.609375 3272.140625 340.398438 3264.488281 340.398438 " clip-path="url(#clip)"/>
</svg>