<svg xmlns="http://www.w3.org/2000/svg" version="1.1" xmlns:xlink="http://www.w3.org/1999/xlink" xmlns:svgjs="http://svgjs.dev/svgjs" viewBox="0 0 600 600">
  <path d="M587.0168544611031 610.6843397012367C493.4414328098991 663.4077995807941 113.90231563257305 611.9064161172523 26.611809905440907 607.9608899942054C-60.67869582169125 604.0153638711586 51.22773092594872 595.9148084512367 63.273820098312 587.0111829629554C75.31990927067528 578.1075574746742 87.19141627954572 566.934390563867 98.8883449396206 554.539137064518C110.58527359969548 542.1438835651691 127.69421753890444 519.6229078164713 133.45539205876122 512.6396619668621C139.216566578618 505.6564161172533 128.39254364974428 521.3687116494789 133.45539205876122 512.6396619668621C138.51824046777816 503.9106122842455 155.2780137221727 476.6759778848314 163.83248251286278 460.26536387115954C172.38695130355288 443.85474985748766 179.54477550195784 431.4594963581387 184.78220480290184 414.1759778848314C190.01963410384585 396.8924594115241 195.606220102381 376.6410657754564 195.25705831852684 356.5642530313158C194.9078965346727 336.48744028717516 189.14672964421044 310.82403900136785 182.68723409977684 293.71510141998766C176.22773855534325 276.6061638386075 167.32410798079897 266.1313001504564 156.50008505192528 253.91062754303454C145.6760621230516 241.68995493561266 129.96376786239077 231.2150887043301 117.74309652653466 220.3910657754564C105.52242519067852 209.56704284658272 87.88974493351708 201.01257914215563 83.17605703678856 188.96648996979235C78.46236914006005 176.92040079742907 82.30314876245588 158.9385536701504 89.46096914616356 148.11453074127672C96.61878952987125 137.290507812403 111.10901118921367 128.56145812978582 126.12297933903466 124.02235239655016C141.1369474888556 119.48324666331449 164.18164938297997 117.73743774404365 179.54477804508934 120.87989634186266C194.90790670719872 124.02235493968168 205.20817933089663 134.84637786855535 218.3017513116909 142.87710398346422C231.39532329248516 150.90783009837307 242.9176596165412 163.82682373037179 258.10620992985497 169.0642530313158C273.29476024316875 174.3016823322598 293.5461767674201 175.1745842487637 309.4330531915737 174.3016797891283C325.31992961572735 173.42877532949288 339.2864111424201 168.19135111481188 353.42746847477684 163.8268262735033C367.5685258071336 159.4623014321947 381.01124431299297 155.44693328847725 394.27939718571434 148.11453074127672C407.5475500584357 140.78212819407622 419.4190659682664 126.64106959015368 433.03638571110497 119.83241099030016C446.65370545394353 113.02375239044665 463.0643194676154 107.6117409260098 475.9833156427456 107.26257914215563C488.90231181787436 106.91341735830146 499.7263423761422 110.05587722768622 510.5503627618843 117.73744028717516C521.3743831476265 125.4190033466641 533.2458787124053 141.30586832672594 540.9274379571968 153.35195749908922C548.6089972019886 165.3980466714525 551.9260239760772 176.39665557851632 556.6397182306343 190.01397532135485C561.3534124851917 203.63129506419338 563.9721665542022 218.12151672353585 569.2096034845406 235.05587595612047C574.4470404148792 251.9902351887051 585.0964646499053 229.01538675934313 588.0643398126656 291.62013071686266C591.0322149754261 354.2248746743822 680.5922761123077 557.9608798216796 587.0168544611031 610.6843397012367C493.4414328098991 663.4077995807941 113.90231563257305 611.9064161172523 26.611809905440907 607.9608899942054 " fill="url(&quot;#SvgjsRadialGradient1002&quot;)" transform="matrix(1.2155062500000002,0,0,1.2155062500000002,-73.64363454599385,-79.9015679464818)" stroke-width="0" stroke="hsl(305, 77%, 40%)">
  </path>
  <defs>
    <radialGradient id="SvgjsRadialGradient1002" r="1.4">
      <stop stop-color="#56ccf2" offset="0"></stop>
      <stop stop-color="#804dee" offset="1"></stop>
    </radialGradient>
  </defs>
</svg>