<svg xmlns="http://www.w3.org/2000/svg" xmlns:xlink="http://www.w3.org/1999/xlink" version="1.1" id="Layer_1" x="0px" y="0px" width="100%" viewBox="0 0 547 456" enable-background="new 0 0 547 456" xml:space="preserve">
<path fill="none" opacity="0.000000" stroke="none" d=" M377.000000,457.000000   C251.333359,457.000000 126.166725,457.000000 1.000067,457.000000   C1.000045,305.000061 1.000045,153.000137 1.000022,1.000149   C183.333237,1.000099 365.666473,1.000099 547.999756,1.000050   C547.999878,152.999863 547.999878,304.999725 547.999939,456.999786   C491.166656,457.000000 434.333344,457.000000 377.000000,457.000000  M288.828857,429.978912   C294.865448,429.201843 300.910370,428.483948 306.937195,427.637207   C329.989288,424.398682 351.560913,417.078400 371.992249,405.717987   C396.609802,392.029907 416.901703,373.415985 434.393158,351.839783   C449.822113,332.807678 461.304871,311.354858 467.791718,287.457916   C472.268219,270.966858 475.785156,254.291565 475.865601,237.181412   C475.921661,225.259613 475.311279,213.267456 473.978149,201.421585   C471.817596,182.223862 466.468262,163.782288 458.181458,146.287460   C450.296509,129.641144 440.259827,114.408691 428.134796,100.486130   C417.660919,88.459457 406.304779,77.453522 393.668610,67.722267   C378.529358,56.063343 362.087677,46.509583 344.004639,40.637543   C329.536530,35.939377 314.477631,32.757214 299.463837,30.154749   C290.216919,28.551912 280.562531,29.078703 271.090515,29.066216   C263.514648,29.056229 255.898911,29.302246 248.369492,30.090269   C231.165344,31.890846 214.727585,36.517105 198.507568,42.720196   C180.332993,49.670769 164.378479,60.100700 149.272171,71.786827   C140.029312,78.937027 131.946579,87.749054 124.100754,96.494682   C117.092384,104.306824 110.396027,112.601433 104.887207,121.503258   C98.494240,131.833801 93.168396,142.883713 88.054108,153.933670   C78.916451,173.676559 75.405571,194.876358 74.121986,216.351944   C73.451675,227.566818 74.173111,238.932449 75.126831,250.156845   C75.989784,260.312958 77.267822,270.553619 79.675766,280.437103   C88.187454,315.373596 106.009445,345.242126 131.205353,370.656464   C144.903336,384.473145 160.232239,396.266052 177.339020,405.819763   C203.744873,420.566833 231.991684,428.344879 262.993286,430.031799   C271.315308,430.008240 279.637360,429.984680 288.828857,429.978912  z"/>
<path fill="#363636" opacity="1.000000" stroke="none" d=" M262.071869,429.926971   C231.991684,428.344879 203.744873,420.566833 177.339020,405.819763   C160.232239,396.266052 144.903336,384.473145 131.205353,370.656464   C106.009445,345.242126 88.187454,315.373596 79.675766,280.437103   C77.267822,270.553619 75.989784,260.312958 75.126831,250.156845   C74.173111,238.932449 73.451675,227.566818 74.121986,216.351944   C75.405571,194.876358 78.916451,173.676559 88.054108,153.933670   C93.168396,142.883713 98.494240,131.833801 104.887207,121.503258   C110.396027,112.601433 117.092384,104.306824 124.100754,96.494682   C131.946579,87.749054 140.029312,78.937027 149.272171,71.786827   C164.378479,60.100700 180.332993,49.670769 198.507568,42.720196   C214.727585,36.517105 231.165344,31.890846 248.369492,30.090269   C255.898911,29.302246 263.514648,29.056229 271.090515,29.066216   C280.562531,29.078703 290.216919,28.551912 299.463837,30.154749   C314.477631,32.757214 329.536530,35.939377 344.004639,40.637543   C362.087677,46.509583 378.529358,56.063343 393.668610,67.722267   C406.304779,77.453522 417.660919,88.459457 428.134796,100.486130   C440.259827,114.408691 450.296509,129.641144 458.181458,146.287460   C466.468262,163.782288 471.817596,182.223862 473.978149,201.421585   C475.311279,213.267456 475.921661,225.259613 475.865601,237.181412   C475.785156,254.291565 472.268219,270.966858 467.791718,287.457916   C461.304871,311.354858 449.822113,332.807678 434.393158,351.839783   C416.901703,373.415985 396.609802,392.029907 371.992249,405.717987   C351.560913,417.078400 329.989288,424.398682 306.937195,427.637207   C300.910370,428.483948 294.865448,429.201843 288.096405,429.681335   C278.933258,429.564850 270.502563,429.745911 262.071869,429.926971  M127.823929,217.294098   C128.232727,227.405426 127.596237,237.688751 129.227005,247.598999   C137.302612,296.675079 184.409210,321.713318 229.692642,301.250305   C247.730942,293.099030 258.926605,279.291534 262.643799,259.021606   C255.108658,259.021606 247.973785,258.896454 240.853058,259.157257   C239.790909,259.196136 238.246857,260.874481 237.859299,262.091614   C235.641327,269.057495 231.431061,274.415375 225.542892,278.607391   C216.194992,285.262543 205.599991,286.558716 194.565094,285.801941   C170.105423,284.124481 150.904785,265.374176 153.694366,235.143860   C190.670044,235.143860 227.707550,235.143860 264.936829,235.143860   C264.936829,231.069626 265.268951,227.562637 264.865326,224.142471   C264.105286,217.702286 263.422180,211.185043 261.833405,204.921448   C249.802887,157.492722 210.164078,141.651993 171.868759,156.196259   C144.803894,166.475296 131.990005,188.603912 127.823929,217.294098  M377.802124,290.718292   C379.286743,292.931488 381.158386,294.979462 382.186401,297.387573   C385.861176,305.995544 392.229156,308.507141 401.217377,307.443481   C407.656616,306.681458 414.258667,307.295319 421.781219,307.295319   C401.195190,278.591522 381.350586,250.921463 361.488800,223.227493   C379.390381,199.304581 396.968689,175.813660 415.169281,151.491135   C405.478058,151.491135 397.013397,151.620697 388.556488,151.421875   C385.537994,151.350906 383.710876,152.374664 382.000183,154.819717   C373.406250,167.102921 364.640381,179.265823 355.932404,191.469208   C352.563629,196.190216 349.188171,200.906464 345.550873,205.995514   C344.180267,204.064865 343.109467,202.599274 342.082611,201.103455   C331.524384,185.723175 321.000183,170.319382 310.374512,154.985886   C309.414490,153.600494 307.839355,151.701965 306.504913,151.665009   C296.421051,151.385757 286.325958,151.512512 275.402924,151.512512   C276.997528,153.782272 277.996735,155.262665 279.053833,156.700470   C294.940338,178.308502 310.780151,199.951355 326.792267,221.465958   C328.905457,224.305298 329.104309,226.167023 326.940613,229.160614   C309.376923,253.461151 292.011414,277.904938 274.593262,302.310669   C273.594299,303.710358 272.663300,305.158569 271.221497,307.293854   C280.764740,307.293854 289.246185,307.135315 297.716431,307.374298   C300.961975,307.465851 302.806702,306.367004 304.583160,303.691803   C317.021790,284.960083 329.632050,266.342346 342.196198,247.694077   C343.192810,246.214844 344.255707,244.780289 345.583588,242.907852   C356.380157,258.937317 366.884583,274.533081 377.802124,290.718292  z"/>
<path fill="#555555" opacity="1.000000" stroke="none" d=" M262.532593,429.979370   C270.502563,429.745911 278.933258,429.564850 287.661682,429.672455   C279.637360,429.984680 271.315308,430.008240 262.532593,429.979370  z"/>
<path fill="#FBFBFB" opacity="1.000000" stroke="none" d=" M127.865868,216.848068   C131.990005,188.603912 144.803894,166.475296 171.868759,156.196259   C210.164078,141.651993 249.802887,157.492722 261.833405,204.921448   C263.422180,211.185043 264.105286,217.702286 264.865326,224.142471   C265.268951,227.562637 264.936829,231.069626 264.936829,235.143860   C227.707550,235.143860 190.670044,235.143860 153.694366,235.143860   C150.904785,265.374176 170.105423,284.124481 194.565094,285.801941   C205.599991,286.558716 216.194992,285.262543 225.542892,278.607391   C231.431061,274.415375 235.641327,269.057495 237.859299,262.091614   C238.246857,260.874481 239.790909,259.196136 240.853058,259.157257   C247.973785,258.896454 255.108658,259.021606 262.643799,259.021606   C258.926605,279.291534 247.730942,293.099030 229.692642,301.250305   C184.409210,321.713318 137.302612,296.675079 129.227005,247.598999   C127.596237,237.688751 128.232727,227.405426 127.865868,216.848068  M184.499954,215.137817   C202.589920,215.137817 220.679886,215.137817 238.770340,215.137817   C238.537384,190.698868 218.585663,172.217117 193.860733,172.949921   C171.472824,173.613464 152.410248,193.400909 153.666779,215.137817   C163.589981,215.137817 173.544952,215.137817 184.499954,215.137817  z"/>
<path fill="#FBFBFB" opacity="1.000000" stroke="none" d=" M377.595581,290.423584   C366.884583,274.533081 356.380157,258.937317 345.583588,242.907852   C344.255707,244.780289 343.192810,246.214844 342.196198,247.694077   C329.632050,266.342346 317.021790,284.960083 304.583160,303.691803   C302.806702,306.367004 300.961975,307.465851 297.716431,307.374298   C289.246185,307.135315 280.764740,307.293854 271.221497,307.293854   C272.663300,305.158569 273.594299,303.710358 274.593262,302.310669   C292.011414,277.904938 309.376923,253.461151 326.940613,229.160614   C329.104309,226.167023 328.905457,224.305298 326.792267,221.465958   C310.780151,199.951355 294.940338,178.308502 279.053833,156.700470   C277.996735,155.262665 276.997528,153.782272 275.402924,151.512512   C286.325958,151.512512 296.421051,151.385757 306.504913,151.665009   C307.839355,151.701965 309.414490,153.600494 310.374512,154.985886   C321.000183,170.319382 331.524384,185.723175 342.082611,201.103455   C343.109467,202.599274 344.180267,204.064865 345.550873,205.995514   C349.188171,200.906464 352.563629,196.190216 355.932404,191.469208   C364.640381,179.265823 373.406250,167.102921 382.000183,154.819717   C383.710876,152.374664 385.537994,151.350906 388.556488,151.421875   C397.013397,151.620697 405.478058,151.491135 415.169281,151.491135   C396.968689,175.813660 379.390381,199.304581 361.488800,223.227493   C381.350586,250.921463 401.195190,278.591522 421.781219,307.295319   C414.258667,307.295319 407.656616,306.681458 401.217377,307.443481   C392.229156,308.507141 385.861176,305.995544 382.186401,297.387573   C381.158386,294.979462 379.286743,292.931488 377.595581,290.423584  z"/>
<path fill="#373737" opacity="1.000000" stroke="none" d=" M183.999939,215.137817   C173.544952,215.137817 163.589981,215.137817 153.666779,215.137817   C152.410248,193.400909 171.472824,173.613464 193.860733,172.949921   C218.585663,172.217117 238.537384,190.698868 238.770340,215.137817   C220.679886,215.137817 202.589920,215.137817 183.999939,215.137817  z"/>
</svg>