<svg class="svg-icon" style="width: 1em;height: 1em;vertical-align: middle;fill: #E7E7E7;overflow: hidden;" viewBox="0 0 1024 1024" version="1.1" xmlns="http://www.w3.org/2000/svg"><path d="M64.28704 864h416a64 64 0 0 1 4.8 127.84L480.28704 992H64.28704a64 64 0 0 1-4.8-127.84L64.28704 864h416H64.28704z m0-416h832a64 64 0 0 1 4.8 127.84L896.28704 576H64.28704a64 64 0 0 1-4.8-127.84L64.28704 448zM480.28704 48h416a64 64 0 0 1 4.8 127.84L896.28704 176H480.28704a64 64 0 0 1-4.8-127.84L480.28704 48z" fill="#E7E7E7" /></svg>