<svg xmlns="http://www.w3.org/2000/svg" viewBox="0 0 300 300">
  <g fill="none" stroke="#80bdda" stroke-width="2">
    <path d="M88.09 59.82a28.4 28.4 0 0 0-28.4-28.4 28.4 28.4 0 0 0-28.4 28.4 28.4 28.4 0 0 0 28.4 28.4 28.4 28.4 0 0 0 28.4-28.4M161.25 129.75v-20.5q0-.5-.5-.5h-45.5q-.5 0-.5.5v156a.51.5 90 0 0 .5.51h47.81a.46.45 90 0 0 .45-.46q-.05-39.32.02-78.71c.03-16.98 2.96-35.39 23.29-38.32 26.17-3.76 30.46 17.6 30.45 37.49q-.03 39.47-.02 78.98 0 .51.51.51h47.47q.51 0 .51-.51.05-43.4-.02-86.8c-.05-29.9-4.91-63.78-40.15-71.05-24.4-5.03-50.49.03-63.8 23a.28.28 0 0 1-.52-.14M83.75 109.23a.48.48 0 0 0-.48-.48H35.73a.48.48 0 0 0-.48.48v155.54a.48.48 0 0 0 .48.48h47.54a.48.48 0 0 0 .48-.48V109.23" vector-effect="non-scaling-stroke"/>
  </g>
  <path fill="#56ccf2" d="M52.31 0h195.74c28.33 2.83 49.18 23.98 51.95 52.3v195.5c-2.61 28.24-23.91 49.39-52.07 52.2H52.19C23.96 297.23 2.71 276.22 0 247.93V51.95C2.83 23.64 24 2.69 52.31 0Zm35.78 59.82a28.4 28.4 0 0 0-28.4-28.4 28.4 28.4 0 0 0-28.4 28.4 28.4 28.4 0 0 0 28.4 28.4 28.4 28.4 0 0 0 28.4-28.4Zm73.16 69.93v-20.5q0-.5-.5-.5h-45.5q-.5 0-.5.5v156a.51.5 90 0 0 .5.51h47.81a.46.45 90 0 0 .45-.46q-.05-39.32.02-78.71c.03-16.98 2.96-35.39 23.29-38.32 26.17-3.76 30.46 17.6 30.45 37.49q-.03 39.47-.02 78.98 0 .51.51.51h47.47q.51 0 .51-.51.05-43.4-.02-86.8c-.05-29.9-4.91-63.78-40.15-71.05-24.4-5.03-50.49.03-63.8 23a.28.28 0 0 1-.52-.14Zm-77.5-20.52a.48.48 0 0 0-.48-.48H35.73a.48.48 0 0 0-.48.48v155.54a.48.48 0 0 0 .48.48h47.54a.48.48 0 0 0 .48-.48V109.23Z"/>
  <circle cx="59.69" cy="59.82" r="28.4" fill="#fff"/>
  <path fill="#fff" d="M161.25 129.75a.28.28 0 0 0 .52.14c13.31-22.97 39.4-28.03 63.8-23 35.24 7.27 40.1 41.15 40.15 71.05q.07 43.4.02 86.8 0 .51-.51.51h-47.47q-.51 0-.51-.51-.01-39.51.02-78.98c.01-19.89-4.28-41.25-30.45-37.49-20.33 2.93-23.26 21.34-23.29 38.32q-.07 39.39-.02 78.71a.46.45-90 0 1-.45.46h-47.81a.51.5 90 0 1-.5-.51v-156q0-.5.5-.5h45.5q.5 0 .5.5v20.5Z"/>
  <rect width="48.5" height="156.5" x="35.25" y="108.75" fill="#fff" rx=".48"/>
  </svg>