
<svg xmlns="http://www.w3.org/2000/svg" version="1.1" xmlns:xlink="http://www.w3.org/1999/xlink"
  xmlns:svgjs="http://svgjs.dev/svgjs" width="250" height="281.25" viewBox="0 0 1000 1125">
  <g transform="matrix(1,0,0,1,1.7053025658242404e-13,0)">
    <svg viewBox="0 0 320 360" data-background-color="#000000" preserveAspectRatio="xMidYMid meet" height="1125"
      width="1000" xmlns="http://www.w3.org/2000/svg" xmlns:xlink="http://www.w3.org/1999/xlink">
      <g id="tight-bounds" transform="matrix(1,0,0,1,0,0)">
        <svg viewBox="0 0 320 360" height="360" width="320">
          <rect width="320" height="360" fill="url(#1621d5fd-b362-4730-8b23-49b0ba1b3101)"
            mask="url(#208b8a67-8a08-4f29-9868-a928b0775f9f)" data-fill-palette-color="tertiary">
          </rect>
          <g><svg></svg></g>
          <g>
            <svg viewBox="0 0 320 360" height="360" width="320">
              <g>
                <path xmlns="http://www.w3.org/2000/svg"
                  d="M20.961 227.22l3.726 4.658-1.863-6.056c-0.466-2.795-3.726 0.466-1.863 1.398M25.153 224.425c1.397 2.329 2.795 4.658 2.795 6.987 0 3.261 2.795 4.658 5.123 5.589-3.261-3.726-5.124-13.974-7.918-12.576M204.017 26.929c7.918 0 15.371-0.932 23.756 0.931 20.495 5.124 37.729 15.371 49.374 29.811l32.606 52.169c1.397 13.042 4.192 27.482 3.726 43.319 3.261 0 2.795-4.658 6.521-5.59-3.726 9.316-5.59 20.961-6.521 34.469-2.329-7.453 0-18.632 0.466-24.687-3.261 5.124-5.124 1.397-5.124-0.932 0.466-3.726-1.397-3.261-2.795-4.658-5.124-4.658-8.384-9.782-12.11-17.7 2.329-6.055 2.795-14.905-4.658-19.563-2.329-1.397-5.124-3.726-6.521-7.453-1.863-5.124-5.124-11.179-4.193-19.097 0.466-2.329-6.987 5.124-11.179 1.863-18.166-12.576-36.332-27.016-58.224-39.127-11.645 0-20.029-4.192-24.221-9.316-3.726-4.658-0.932-10.713 4.658-11.179 3.261 0 6.987-0.932 9.782 0.932 0.466-1.863 2.329-4.192 4.657-4.192M157.904 16.215l0.932 0.466c4.658 0.932 6.987 7.453 12.11 5.124 0 3.261 0.466 6.521-0.466 8.85-1.397 3.726-5.59 3.726-8.85 3.726-31.208-1.863-49.374 11.179-68.471 22.358-5.124 3.261-10.713 5.59-14.906 9.782-20.029 18.632-41.921 35.866-47.045 70.335l-4.192 38.195c-0.466 4.192-5.124 8.384-4.192 13.508l3.26 22.824c-3.261-3.261-5.124 0.932-4.192 2.795 0.466 1.397 2.329 6.055 5.124 1.863 3.726 6.987 7.453 20.495 12.576 26.55 15.837 18.632 36.332 35.4 53.101 52.169 4.192-0.932 7.453-0.932 8.384-3.727 1.397 2.795-1.397 5.59-3.726 6.056 7.453 4.658 15.837 8.85 27.016 9.781 14.44 0.932 27.948 3.261 40.524 6.522 6.521-1.863 13.042-2.795 20.029-3.261 2.329 0 3.726-3.726 6.521-4.658l0.466-4.658c2.795 4.192 2.329-1.397 0.466-4.192 3.261 2.795 4.192 5.124 5.589 6.987 0-1.397 3.726-6.521 3.727-0.466l0.931-6.055c1.397-0.932 1.863 5.124 3.261 0.931 1.397-4.192 4.192-0.932 6.987-2.329-0.932 1.863-0.466 5.59 2.794 3.261l3.727-3.261c2.329 5.59 6.055 3.261 7.918 2.329 20.495-13.042 40.99-28.413 60.553-43.784l-0.466 6.055 2.329-7.453c2.329 2.329 4.192 0.466 5.124-0.931 2.795-4.658 6.521-9.316 12.577-13.508-7.453 20.029-16.303 35.866-27.482 48.908l-4.658 5.59c0 3.261-0.932 7.453-4.658 7.918-1.863 0.466-5.59-0.932-8.384 1.863-1.397 1.863 3.261 5.59-0.466 2.795-3.261-2.329-6.521 0-10.248 0.932-2.795 0.932 1.863 3.726 2.795 5.589 0.932 1.863 1.863 3.726 1.398 6.056l-5.124-5.59c-6.055 3.261-9.782 9.316-14.906 13.974-2.329 1.863-1.397 5.124-1.397 7.918-3.261 0-6.987-0.932-8.85 0.932-1.397 1.863-0.932 4.658-0.932 7.453-4.658-0.466-5.124-7.453-9.315-6.056-4.192 0.932-8.85 1.397-12.577 3.727 2.795 5.59-4.658 2.329-3.726 3.26-6.987-4.192-13.042-7.453-20.495-4.658-15.837-5.124-35.4-2.795-49.84-0.931 0-2.329 0.466-4.658-0.466-5.124-0.932 2.329-3.726 1.397-3.26 1.397-8.85-6.055-17.7-9.782-27.016-14.905-8.384 0.932-16.303-3.261-18.632-5.59-6.521-6.055-13.974-2.795-20.029-4.192-13.042-3.261-17.7-16.769-19.098-26.084-0.932-4.658-4.658-6.521-6.055-6.056-6.055-19.563-15.371-37.263-22.824-55.429-1.863-4.658-1.397-9.316-1.397-14.44 2.329 0.932 4.658 0.466 4.192-2.794-2.329-15.371-7.918-27.016-13.974-38.195 3.261-15.837 3.726-34.469 11.179-48.443 6.521-12.576 18.632-19.098 27.016-29.811 2.795-3.726 2.795-8.85 5.59-12.11 9.316-9.316 18.632-19.098 28.879-27.482 4.658-3.726 10.247 0 17.234-1.397 2.329-8.384 11.645-15.837 20.495-13.508 3.726 0.932 11.179-8.85 13.508-9.782 3.726-1.397 1.863 3.726 1.863 6.987 8.85-6.987 20.961-10.713 32.14-14.906"
                  fill="url(#1621d5fd-b362-4730-8b23-49b0ba1b3101)" fill-rule="nonzero" stroke="none" stroke-width="1"
                  stroke-linecap="butt" stroke-linejoin="miter" stroke-miterlimit="10" stroke-dasharray=""
                  stroke-dashoffset="0" font-family="none" font-weight="none" font-size="none" text-anchor="none"
                  style="mix-blend-mode: normal" data-fill-palette-color="tertiary">
                </path>
              </g>
              <g transform="matrix(1,0,0,1,64,128.21078318262494)">
                <svg viewBox="0 0 192 103.57843363475014" height="103.57843363475014" width="192">
                  <g>
                    <svg viewBox="0 0 192 103.57843363475014" height="103.57843363475014" width="192">
                      <g>
                        <svg viewBox="0 0 192 103.57843363475014" height="103.57843363475014" width="192">
                          <g>
                            <svg viewBox="0 0 192 103.57843363475014" height="103.57843363475014" width="192">
                              <g id="textblocktransform">
                                <svg viewBox="0 0 192 103.57843363475014" height="103.57843363475014" width="192"
                                  id="textblock">
                                  <g>
                                    <svg viewBox="0 0 192 78.8284518828452" height="78.8284518828452" width="192">
                                      <g transform="matrix(1,0,0,1,0,0)">
                                        <svg width="192"
                                          viewBox="1.2000000476837158 -37.84000015258789 93.35000610351562 38.33000183105469"
                                          height="78.8284518828452" data-palette-color="#feeef3">
                                          <path
                                            d="M1.2 0L13.43-37.35 19.12-37.35 32.18 0 27.76 0 24.05-10.96 9.01-10.96 5.49 0 1.2 0ZM10.13-14.45L22.88-14.45 16.28-34.06 15.53-31.27 10.13-14.45ZM47.75 0.02L34.91-37.35 39.4-37.35 48.83-8.91 50.1-3.91 51.49-8.91 60.69-37.35 65.13-37.35 52.56 0.02 47.75 0.02ZM85.25-3.03L85.47-3.03Q89.45-3.03 93.48-4.57L93.48-4.57 94.55-1.2Q92.7-0.27 90.08 0.11 87.47 0.49 85.47 0.49L85.47 0.49 85.13 0.49Q76.44 0.49 73.48-4.49L73.48-4.49Q71.67-7.52 71.28-12.65L71.28-12.65Q71.11-15.11 71.11-18.04 71.11-20.97 71.27-23.62 71.43-26.27 71.92-28.48 72.41-30.69 73.33-32.42 74.26-34.16 75.83-35.35L75.83-35.35Q79-37.84 85.05-37.84L85.05-37.84Q88.96-37.84 91.34-37.34 93.72-36.84 94.55-36.52L94.55-36.52 93.45-32.67Q88.69-34.33 85.31-34.33 81.93-34.33 80.11-33.51 78.29-32.69 77.27-30.81L77.27-30.81Q75.48-27.59 75.48-18.53L75.48-18.53 75.48-16.72Q75.48-9.28 77.41-6.32L77.41-6.32Q79.56-3.03 85.25-3.03L85.25-3.03Z"
                                            opacity="1" transform="matrix(1,0,0,1,0,0)" fill="#feeef3"
                                            class="wordmark-text-0" data-fill-palette-color="primary" id="text-0">
                                          </path>
                                        </svg>
                                      </g>
                                    </svg>
                                  </g>
                                  <g transform="matrix(1,0,0,1,0,90.3314148953975)">
                                    <svg viewBox="0 0 192 13.24701873935264" height="13.24701873935264" width="192">
                                      <g transform="matrix(1,0,0,1,0,0)">
                                        <svg width="192" viewBox="4.25 -34.400001525878906 586.9400024414062 40.5"
                                          height="13.24701873935264" data-palette-color="#f5d9fe">
                                          <path
                                            d="M7.35 0L4.25 0 4.25-33.7 7.35-33.7 7.35 0ZM30.8-30.85L30.8-2.85 37.55-2.85Q41-2.85 43.65-4.05 46.3-5.25 47.85-7.3 49.4-9.35 50.17-11.8 50.95-14.25 50.95-17.05L50.95-17.05Q50.95-22.8 47.12-26.83 43.3-30.85 37.3-30.85L37.3-30.85 30.8-30.85ZM27.7 0L27.7-33.7 37.3-33.7Q44.7-33.7 49.45-29.1 54.2-24.5 54.2-17.05L54.2-17.05Q54.2-12.5 52.45-8.72 50.7-4.95 46.82-2.48 42.95 0 37.55 0L37.55 0 27.7 0ZM63.54-15.4L63.54-2.85 78.69-2.85 78.69 0 60.44 0 60.44-33.7 78.39-33.7 78.39-30.85 63.54-30.85 63.54-18.25 76.64-18.25 76.64-15.4 63.54-15.4ZM107.14-33.7L110.49-33.7 98.64 0 94.39 0 82.94-33.7 86.29-33.7 90.74-20.35 96.54-2.75 102.54-20.35 107.14-33.7ZM119.59-15.4L119.59-2.85 134.74-2.85 134.74 0 116.49 0 116.49-33.7 134.44-33.7 134.44-30.85 119.59-30.85 119.59-18.25 132.69-18.25 132.69-15.4 119.59-15.4ZM144.09-33.7L144.09-2.85 158.94-2.85 158.94 0 140.99 0 140.99-33.7 144.09-33.7ZM163.18-17L163.18-17Q163.18-24.95 167.16-29.68 171.13-34.4 177.93-34.4L177.93-34.4Q184.93-34.4 188.83-29.73 192.73-25.05 192.73-17L192.73-17Q192.73-9 188.78-4.3 184.83 0.4 178.03 0.4L178.03 0.4Q171.33 0.4 167.26-4.35 163.18-9.1 163.18-17ZM166.38-17L166.38-17Q166.38-10.35 169.56-6.48 172.73-2.6 178.03-2.6L178.03-2.6Q183.53-2.6 186.53-6.43 189.53-10.25 189.53-17L189.53-17Q189.53-23.8 186.51-27.6 183.48-31.4 177.93-31.4L177.93-31.4Q172.53-31.4 169.46-27.58 166.38-23.75 166.38-17ZM202.33-30.95L202.33-15.55 208.23-15.55Q212.18-15.55 214.51-17.65 216.83-19.75 216.83-22.9L216.83-22.9Q216.83-26.6 214.43-28.78 212.03-30.95 207.68-30.95L207.68-30.95 202.33-30.95ZM199.23 0L199.23-33.7 207.33-33.7Q213.23-33.7 216.61-30.73 219.98-27.75 219.98-22.9L219.98-22.9Q219.98-18.7 216.71-15.75 213.43-12.8 207.88-12.8L207.88-12.8 202.33-12.8 202.33 0 199.23 0ZM224.53 6.1L221.83 6.1 226.38-4.6 230.88-4.6 224.53 6.1ZM245.42-33.7L267.17-33.7 267.17-30.85 257.82-30.85 257.82 0 254.72 0 254.72-30.85 245.42-30.85 245.42-33.7ZM292.42-18.6L292.42-33.7 295.52-33.7 295.52 0 292.42 0 292.42-15.75 275.02-15.75 275.02 0 271.92 0 271.92-33.7 275.02-33.7 275.02-18.6 292.42-18.6ZM306.62-15.4L306.62-2.85 321.77-2.85 321.77 0 303.52 0 303.52-33.7 321.47-33.7 321.47-30.85 306.62-30.85 306.62-18.25 319.72-18.25 319.72-15.4 306.62-15.4ZM331.12-30.95L331.12-16.45 336.57-16.45Q340.27-16.45 342.27-18.5 344.27-20.55 344.27-23.6L344.27-23.6Q344.27-30.95 335.97-30.95L335.97-30.95 331.12-30.95ZM340.37-14.25L349.32 0 345.62 0 337.17-13.7 336.22-13.7 331.12-13.7 331.12 0 328.02 0 328.02-33.7 335.62-33.7Q341.52-33.7 344.44-31.03 347.37-28.35 347.37-23.45L347.37-23.45Q347.27-20.05 345.47-17.6 343.67-15.15 340.37-14.25L340.37-14.25ZM357.66-15.4L357.66-2.85 372.81-2.85 372.81 0 354.56 0 354.56-33.7 372.51-33.7 372.51-30.85 357.66-30.85 357.66-18.25 370.76-18.25 370.76-15.4 357.66-15.4ZM397.01-33.7L397.01-30.85 382.16-30.85 382.16-18 395.26-18 395.26-15.15 382.16-15.15 382.16 0 379.06 0 379.06-33.7 397.01-33.7ZM401.76-17L401.76-17Q401.76-24.95 405.73-29.68 409.71-34.4 416.51-34.4L416.51-34.4Q423.51-34.4 427.41-29.73 431.31-25.05 431.31-17L431.31-17Q431.31-9 427.36-4.3 423.41 0.4 416.61 0.4L416.61 0.4Q409.91 0.4 405.83-4.35 401.76-9.1 401.76-17ZM404.96-17L404.96-17Q404.96-10.35 408.13-6.48 411.31-2.6 416.61-2.6L416.61-2.6Q422.11-2.6 425.11-6.43 428.11-10.25 428.11-17L428.11-17Q428.11-23.8 425.08-27.6 422.06-31.4 416.51-31.4L416.51-31.4Q411.11-31.4 408.03-27.58 404.96-23.75 404.96-17ZM440.91-30.95L440.91-16.45 446.36-16.45Q450.06-16.45 452.06-18.5 454.06-20.55 454.06-23.6L454.06-23.6Q454.06-30.95 445.76-30.95L445.76-30.95 440.91-30.95ZM450.16-14.25L459.11 0 455.41 0 446.96-13.7 446.01-13.7 440.91-13.7 440.91 0 437.81 0 437.81-33.7 445.41-33.7Q451.31-33.7 454.23-31.03 457.16-28.35 457.16-23.45L457.16-23.45Q457.06-20.05 455.26-17.6 453.46-15.15 450.16-14.25L450.16-14.25ZM467.45-15.4L467.45-2.85 482.6-2.85 482.6 0 464.35 0 464.35-33.7 482.3-33.7 482.3-30.85 467.45-30.85 467.45-18.25 480.55-18.25 480.55-15.4 467.45-15.4ZM504.3 0L501.2 0 501.2-33.7 504.3-33.7 504.3 0ZM530.84-14.2L530.09-12.1 543.14-12.1 542.39-14.25 536.69-31.1Q536.04-29.1 530.84-14.2L530.84-14.2ZM550.59 0L547.24 0 544.04-9.35 529.14-9.35 525.89 0 522.54 0 534.44-33.7 538.94-33.7 550.59 0ZM559.34 0L556.24 0 558.59-33.7 562.84-33.7 567.24-21.35 573.19-4.2Q576.64-13.7 579.49-21.35L579.49-21.35 584.09-33.7 588.34-33.7 591.19 0 588.09 0 586.94-13.35 585.59-29.65Q582.59-21.3 579.64-13.35L579.64-13.35 574.99-0.85 571.34-0.85 566.94-13.35 561.34-29.3Q560.89-21.75 560.29-13.35L560.29-13.35 559.34 0Z"
                                            opacity="1" transform="matrix(1,0,0,1,0,0)" fill="#f5d9fe"
                                            class="slogan-text-1" data-fill-palette-color="secondary" id="text-1">
                                          </path>
                                        </svg>
                                      </g>
                                    </svg>
                                  </g>
                                </svg>
                              </g>
                            </svg>
                          </g>
                          <g></g>
                        </svg>
                      </g>
                    </svg>
                  </g>
                </svg>
              </g>
            </svg>
          </g>
          <defs></defs>
          <mask id="208b8a67-8a08-4f29-9868-a928b0775f9f">
            <g id="SvgjsG1074">
              <svg viewBox="0 0 320 360" height="360" width="320">
                <g><svg></svg></g>
                <g>
                  <svg viewBox="0 0 320 360" height="360" width="320">
                    <g>
                      <path xmlns="http://www.w3.org/2000/svg"
                        d="M20.961 227.22l3.726 4.658-1.863-6.056c-0.466-2.795-3.726 0.466-1.863 1.398M25.153 224.425c1.397 2.329 2.795 4.658 2.795 6.987 0 3.261 2.795 4.658 5.123 5.589-3.261-3.726-5.124-13.974-7.918-12.576M204.017 26.929c7.918 0 15.371-0.932 23.756 0.931 20.495 5.124 37.729 15.371 49.374 29.811l32.606 52.169c1.397 13.042 4.192 27.482 3.726 43.319 3.261 0 2.795-4.658 6.521-5.59-3.726 9.316-5.59 20.961-6.521 34.469-2.329-7.453 0-18.632 0.466-24.687-3.261 5.124-5.124 1.397-5.124-0.932 0.466-3.726-1.397-3.261-2.795-4.658-5.124-4.658-8.384-9.782-12.11-17.7 2.329-6.055 2.795-14.905-4.658-19.563-2.329-1.397-5.124-3.726-6.521-7.453-1.863-5.124-5.124-11.179-4.193-19.097 0.466-2.329-6.987 5.124-11.179 1.863-18.166-12.576-36.332-27.016-58.224-39.127-11.645 0-20.029-4.192-24.221-9.316-3.726-4.658-0.932-10.713 4.658-11.179 3.261 0 6.987-0.932 9.782 0.932 0.466-1.863 2.329-4.192 4.657-4.192M157.904 16.215l0.932 0.466c4.658 0.932 6.987 7.453 12.11 5.124 0 3.261 0.466 6.521-0.466 8.85-1.397 3.726-5.59 3.726-8.85 3.726-31.208-1.863-49.374 11.179-68.471 22.358-5.124 3.261-10.713 5.59-14.906 9.782-20.029 18.632-41.921 35.866-47.045 70.335l-4.192 38.195c-0.466 4.192-5.124 8.384-4.192 13.508l3.26 22.824c-3.261-3.261-5.124 0.932-4.192 2.795 0.466 1.397 2.329 6.055 5.124 1.863 3.726 6.987 7.453 20.495 12.576 26.55 15.837 18.632 36.332 35.4 53.101 52.169 4.192-0.932 7.453-0.932 8.384-3.727 1.397 2.795-1.397 5.59-3.726 6.056 7.453 4.658 15.837 8.85 27.016 9.781 14.44 0.932 27.948 3.261 40.524 6.522 6.521-1.863 13.042-2.795 20.029-3.261 2.329 0 3.726-3.726 6.521-4.658l0.466-4.658c2.795 4.192 2.329-1.397 0.466-4.192 3.261 2.795 4.192 5.124 5.589 6.987 0-1.397 3.726-6.521 3.727-0.466l0.931-6.055c1.397-0.932 1.863 5.124 3.261 0.931 1.397-4.192 4.192-0.932 6.987-2.329-0.932 1.863-0.466 5.59 2.794 3.261l3.727-3.261c2.329 5.59 6.055 3.261 7.918 2.329 20.495-13.042 40.99-28.413 60.553-43.784l-0.466 6.055 2.329-7.453c2.329 2.329 4.192 0.466 5.124-0.931 2.795-4.658 6.521-9.316 12.577-13.508-7.453 20.029-16.303 35.866-27.482 48.908l-4.658 5.59c0 3.261-0.932 7.453-4.658 7.918-1.863 0.466-5.59-0.932-8.384 1.863-1.397 1.863 3.261 5.59-0.466 2.795-3.261-2.329-6.521 0-10.248 0.932-2.795 0.932 1.863 3.726 2.795 5.589 0.932 1.863 1.863 3.726 1.398 6.056l-5.124-5.59c-6.055 3.261-9.782 9.316-14.906 13.974-2.329 1.863-1.397 5.124-1.397 7.918-3.261 0-6.987-0.932-8.85 0.932-1.397 1.863-0.932 4.658-0.932 7.453-4.658-0.466-5.124-7.453-9.315-6.056-4.192 0.932-8.85 1.397-12.577 3.727 2.795 5.59-4.658 2.329-3.726 3.26-6.987-4.192-13.042-7.453-20.495-4.658-15.837-5.124-35.4-2.795-49.84-0.931 0-2.329 0.466-4.658-0.466-5.124-0.932 2.329-3.726 1.397-3.26 1.397-8.85-6.055-17.7-9.782-27.016-14.905-8.384 0.932-16.303-3.261-18.632-5.59-6.521-6.055-13.974-2.795-20.029-4.192-13.042-3.261-17.7-16.769-19.098-26.084-0.932-4.658-4.658-6.521-6.055-6.056-6.055-19.563-15.371-37.263-22.824-55.429-1.863-4.658-1.397-9.316-1.397-14.44 2.329 0.932 4.658 0.466 4.192-2.794-2.329-15.371-7.918-27.016-13.974-38.195 3.261-15.837 3.726-34.469 11.179-48.443 6.521-12.576 18.632-19.098 27.016-29.811 2.795-3.726 2.795-8.85 5.59-12.11 9.316-9.316 18.632-19.098 28.879-27.482 4.658-3.726 10.247 0 17.234-1.397 2.329-8.384 11.645-15.837 20.495-13.508 3.726 0.932 11.179-8.85 13.508-9.782 3.726-1.397 1.863 3.726 1.863 6.987 8.85-6.987 20.961-10.713 32.14-14.906"
                        fill="white" fill-rule="nonzero" stroke="none" stroke-width="1" stroke-linecap="butt"
                        stroke-linejoin="miter" stroke-miterlimit="10" stroke-dasharray="" stroke-dashoffset="0"
                        font-family="none" font-weight="none" font-size="none" text-anchor="none"
                        style="mix-blend-mode: normal">
                      </path>
                    </g>
                    <g transform="matrix(1,0,0,1,64,128.21078318262494)">
                      <svg viewBox="0 0 192 103.57843363475014" height="103.57843363475014" width="192">
                        <g>
                          <svg viewBox="0 0 192 103.57843363475014" height="103.57843363475014" width="192">
                            <g>
                              <svg viewBox="0 0 192 103.57843363475014" height="103.57843363475014" width="192">
                                <g>
                                  <svg viewBox="0 0 192 103.57843363475014" height="103.57843363475014" width="192">
                                    <g id="SvgjsG1073">
                                      <svg viewBox="0 0 192 103.57843363475014" height="103.57843363475014" width="192"
                                        id="SvgjsSvg1072">
                                        <g><svg viewBox="0 0 192 78.8284518828452" height="78.8284518828452"
                                            width="192">
                                            <g transform="matrix(1,0,0,1,0,0)">
                                              <svg width="192"
                                                viewBox="1.2000000476837158 -37.84000015258789 93.35000610351562 38.33000183105469"
                                                height="78.8284518828452" data-palette-color="#feeef3">
                                              </svg>
                                            </g>
                                          </svg>
                                        </g>
                                        <g transform="matrix(1,0,0,1,0,90.3314148953975)">
                                          <svg viewBox="0 0 192 13.24701873935264" height="13.24701873935264"
                                            width="192">
                                            <g transform="matrix(1,0,0,1,0,0)">
                                              <svg width="192" viewBox="4.25 -34.400001525878906 586.9400024414062 40.5"
                                                height="13.24701873935264" data-palette-color="#f5d9fe">
                                              </svg>
                                            </g>
                                          </svg>
                                        </g>
                                      </svg>
                                    </g>
                                  </svg>
                                </g>
                                <g></g>
                              </svg>
                            </g>
                          </svg>
                        </g>
                      </svg>
                    </g>
                  </svg>
                </g>
                <defs></defs>
              </svg>
            </g>
          </mask>

          <linearGradient x1="0" x2="1" y1="0.5" y2="0.5" id="1621d5fd-b362-4730-8b23-49b0ba1b3101">
            <stop stop-color="#f00b51" offset="0">
            </stop>
            <stop stop-color="#730062" offset="1">
            </stop>
          </linearGradient>
        </svg>
        <rect width="320" height="360" fill="none" stroke="none" visibility="hidden">
        </rect>
      </g>
    </svg>
  </g>
</svg>